<?xml version="1.0" standalone="no"?>
<!DOCTYPE svg PUBLIC "-//W3C//DTD SVG 20010904//EN"
 "http://www.w3.org/TR/2001/REC-SVG-20010904/DTD/svg10.dtd">
<svg version="1.0" xmlns="http://www.w3.org/2000/svg"
 width="571.000000pt" height="571.000000pt" viewBox="0 0 571.000000 571.000000"
 preserveAspectRatio="xMidYMid meet">
<metadata>
Created by potrace 1.11, written by Peter Selinger 2001-2013
</metadata>
<g transform="translate(0.000000,571.000000) scale(0.100000,-0.100000)"
fill="#000000" stroke="none">
<path d="M2580 5663 c-133 -13 -322 -48 -455 -85 -141 -39 -162 -46 -260 -83
-268 -99 -541 -258 -809 -469 -161 -127 -453 -453 -551 -617 -120 -199 -152
-256 -187 -329 -77 -165 -172 -425 -184 -509 -3 -20 -11 -58 -19 -86 -20 -71
-32 -138 -44 -235 -6 -47 -15 -120 -21 -163 -13 -97 -13 -371 -1 -469 5 -40
15 -116 21 -168 7 -52 19 -124 27 -160 8 -36 21 -95 29 -132 14 -72 89 -303
126 -390 69 -163 195 -391 302 -548 144 -210 412 -487 606 -625 263 -188 441
-287 675 -378 372 -144 679 -194 1115 -183 232 6 276 9 430 36 642 110 1274
486 1689 1005 83 103 201 269 201 282 0 2 26 47 58 101 111 185 258 549 267
662 1 15 4 31 7 36 36 60 88 471 88 694 0 147 -16 338 -29 355 -5 5 -8 42 -8
80 0 43 -10 110 -26 175 -14 58 -29 121 -33 140 -3 19 -23 85 -44 145 -136
398 -329 725 -618 1043 -109 120 -384 350 -511 429 -313 192 -569 304 -856
373 -49 11 -108 25 -130 31 -47 11 -146 26 -265 39 -78 9 -509 11 -590 3z
m356 -269 c58 -43 67 -65 76 -196 5 -68 8 -175 6 -238 -3 -102 -6 -119 -26
-148 -75 -105 -283 -100 -346 8 -19 32 -21 55 -24 248 -2 117 -1 223 2 237 8
33 55 85 91 101 47 22 186 15 221 -12z m363 -14 c41 -11 83 -20 92 -20 10 0
21 -5 24 -10 4 -6 2 -67 -5 -136 -6 -70 -9 -128 -7 -130 2 -2 23 49 47 113 24
65 46 122 51 127 6 7 206 -37 217 -48 2 -2 -8 -50 -22 -107 -14 -57 -43 -180
-66 -274 -68 -289 -53 -263 -137 -245 -76 17 -77 18 -59 86 30 111 67 277 63
281 -3 2 -10 -11 -17 -29 -6 -18 -18 -49 -25 -68 -8 -19 -31 -79 -52 -133
l-37 -99 -46 7 c-25 4 -49 10 -53 14 -4 5 -3 59 2 122 26 291 24 299 -24 84
-44 -196 -40 -188 -89 -181 -73 12 -107 26 -102 44 4 15 47 192 122 505 15 64
33 117 39 117 5 0 43 -9 84 -20z m-928 -31 c56 -18 94 -70 119 -161 12 -44 20
-81 18 -83 -3 -3 -99 -30 -139 -39 -25 -5 -27 -3 -44 69 -9 41 -23 82 -30 92
-13 17 -15 17 -31 1 -17 -17 -16 -27 31 -214 28 -109 55 -204 61 -212 15 -20
44 -8 44 17 0 11 -7 46 -15 77 -8 32 -13 59 -12 61 8 7 160 44 164 39 12 -11
29 -114 27 -158 -4 -99 -92 -163 -226 -163 -74 0 -78 1 -113 35 -40 39 -60 97
-115 324 -40 170 -31 229 45 276 73 45 153 59 216 39z m-435 -404 c59 -126
108 -231 109 -232 1 -2 20 6 43 17 22 11 45 20 50 20 9 0 52 -93 52 -112 0 -8
-222 -118 -239 -118 -9 0 -18 19 -139 275 -49 105 -101 214 -116 244 -14 30
-26 60 -26 66 0 13 142 85 152 76 3 -3 55 -109 114 -236z m2108 179 l126 -65
-30 -60 c-17 -32 -32 -59 -34 -59 -2 0 -24 11 -49 25 l-45 25 -26 -44 c-14
-25 -26 -49 -26 -55 0 -5 18 -20 40 -32 22 -13 40 -27 40 -31 0 -13 -49 -108
-56 -108 -3 0 -25 11 -48 25 l-43 25 -32 -61 c-35 -68 -36 -64 34 -101 22 -11
41 -22 43 -23 5 -5 -47 -103 -57 -110 -6 -3 -69 24 -141 60 l-131 66 109 212
c60 117 128 249 151 295 23 45 43 82 45 82 2 0 60 -30 130 -66z m-2499 -156
l36 -53 -26 -22 c-14 -12 -33 -26 -42 -32 -17 -9 -17 -12 1 -45 10 -20 26 -42
36 -51 15 -13 20 -12 57 15 l41 30 37 -52 38 -52 -24 -19 c-13 -11 -32 -25
-43 -32 -17 -13 -16 -16 15 -61 19 -27 37 -52 41 -58 3 -5 30 8 59 30 31 23
54 34 56 27 3 -7 20 -32 39 -57 l34 -45 -32 -24 c-112 -81 -207 -147 -216
-147 -5 0 -12 6 -15 13 -3 6 -87 126 -186 266 -100 139 -179 256 -176 260 15
14 221 160 227 161 4 0 23 -24 43 -52z m3175 -342 l24 -27 -47 -46 -46 -47
-38 30 -38 31 -175 -188 c-96 -104 -177 -188 -180 -189 -3 0 -33 25 -68 56
l-63 56 43 47 c23 25 85 93 138 151 53 58 114 124 135 148 l38 43 -31 32 c-18
18 -32 37 -32 42 0 5 19 28 41 52 l42 42 116 -104 c64 -57 127 -115 141 -129z
m-3463 17 c59 -65 146 -158 193 -208 47 -49 98 -104 114 -122 l29 -32 -36 -43
c-20 -24 -51 -61 -70 -82 l-34 -40 -84 49 c-46 26 -103 61 -126 76 -23 16 -45
29 -48 29 -4 0 26 -36 66 -81 41 -44 87 -96 102 -114 l29 -35 -51 -57 c-27
-32 -59 -69 -69 -83 l-20 -25 -269 179 c-147 99 -272 183 -277 187 -5 5 8 29
30 55 21 25 46 55 54 65 14 17 20 14 120 -58 58 -41 128 -91 155 -111 l50 -35
-45 49 c-25 27 -83 88 -128 136 -45 48 -82 91 -82 95 0 12 110 133 120 133 5
0 73 -47 152 -104 78 -58 144 -104 146 -102 1 2 -12 19 -30 37 -110 114 -218
232 -218 238 0 10 101 121 110 121 5 0 57 -53 117 -117z m1848 -165 c200 -36
311 -72 480 -154 253 -123 496 -334 644 -559 77 -117 118 -192 110 -200 -7 -6
-2940 -7 -2947 -1 -9 10 118 214 182 294 185 228 395 393 630 493 39 16 80 34
91 39 100 43 310 91 455 104 69 6 288 -3 355 -16z m1717 8 c50 -21 112 -94
132 -154 19 -55 12 -97 -22 -150 -25 -39 -327 -260 -371 -272 -110 -29 -241
85 -241 211 0 60 26 106 85 152 301 232 332 248 417 213z m-3305 -1261 c14
-102 12 -115 -16 -115 -15 0 -23 11 -32 40 -16 53 -40 77 -92 91 -46 12 -173
7 -188 -8 -6 -6 -9 -139 -7 -347 l3 -338 34 -29 c19 -16 53 -32 75 -37 31 -6
41 -12 41 -27 0 -19 -8 -20 -225 -20 -220 0 -225 0 -228 21 -2 17 6 23 56 37
45 12 61 22 70 42 15 32 17 672 2 695 -12 20 -161 21 -208 1 -37 -15 -50 -36
-67 -101 -11 -44 -36 -63 -55 -43 -8 7 3 152 16 211 l4 22 402 -2 402 -3 13
-90z m470 78 c2 -6 -12 -16 -32 -23 -67 -22 -66 -18 -63 -405 l3 -347 27 -23
c15 -13 45 -26 67 -30 31 -5 41 -11 41 -26 0 -18 -10 -19 -189 -19 -157 0
-190 2 -195 15 -5 14 28 45 48 45 32 0 35 34 36 378 0 208 -4 351 -10 362 -5
10 -33 26 -62 35 -60 20 -73 29 -63 44 9 16 387 10 392 -6z m184 -55 c35 -39
125 -137 199 -218 74 -80 171 -187 215 -237 43 -51 83 -89 87 -87 4 3 8 114 8
247 0 280 2 274 -90 308 -44 16 -60 27 -60 40 0 18 10 19 160 19 135 0 160 -2
160 -15 0 -8 -15 -21 -32 -28 -65 -27 -63 -11 -68 -451 -4 -352 -7 -401 -21
-404 -14 -3 -72 57 -368 377 -58 63 -148 159 -198 214 l-93 98 0 98 c0 139 9
142 101 39z m1575 25 c13 -91 11 -157 -7 -161 -11 -2 -22 12 -37 47 -30 72
-56 86 -169 86 -56 0 -96 -4 -104 -12 -14 -14 -13 -641 2 -680 13 -34 35 -50
86 -64 51 -13 74 -36 52 -50 -8 -5 -111 -8 -229 -6 -213 2 -215 2 -218 24 -3
17 3 24 25 28 53 12 93 35 103 61 6 14 10 160 10 343 0 258 -3 321 -14 337
-12 16 -27 19 -105 19 -113 0 -137 -15 -166 -101 -16 -47 -25 -60 -44 -62 -23
-4 -23 -2 -18 55 8 82 18 156 23 171 3 9 92 12 403 12 l400 0 7 -47z m474 32
c0 -8 -17 -22 -37 -30 -21 -9 -41 -21 -45 -28 -4 -7 -8 -171 -8 -365 l0 -353
23 -23 c13 -13 43 -27 66 -31 32 -5 41 -11 39 -23 -3 -15 -26 -17 -191 -20
-183 -2 -187 -2 -187 18 0 14 11 26 35 35 54 23 57 46 53 413 l-3 324 -23 19
c-13 10 -43 24 -65 31 -43 12 -60 26 -51 40 3 4 92 8 199 8 165 0 195 -3 195
-15z m276 -158 c87 -95 215 -235 284 -311 114 -126 125 -135 133 -114 4 12 7
125 5 250 -3 261 -1 253 -100 293 -31 12 -54 28 -56 38 -3 16 10 17 159 15
169 -3 200 -12 133 -38 -77 -30 -74 -14 -74 -461 0 -381 -1 -399 -18 -399 -11
0 -55 40 -103 92 -46 51 -120 131 -164 178 -129 138 -194 209 -293 317 l-92
102 0 105 c0 82 3 106 13 106 8 0 85 -78 173 -173z m-161 -1017 c3 -5 -6 -27
-20 -49 -14 -23 -25 -43 -25 -46 0 -13 -116 -181 -155 -225 -23 -26 -48 -56
-56 -66 -17 -23 -176 -166 -238 -215 -125 -96 -353 -211 -510 -255 -171 -48
-217 -55 -411 -61 -253 -7 -396 15 -610 92 -68 24 -248 112 -305 148 -146 92
-354 284 -461 427 -70 92 -147 228 -140 245 5 13 184 15 1465 15 901 0 1462
-4 1466 -10z m-3169 -207 c47 -46 65 -87 71 -152 3 -44 0 -63 -15 -87 -19 -30
-135 -114 -157 -114 -6 0 -28 30 -49 66 -30 53 -35 68 -24 75 7 5 37 23 65 40
29 17 55 34 58 39 7 12 -5 40 -18 40 -11 0 -247 -136 -314 -182 -28 -19 -40
-34 -37 -43 9 -22 29 -18 91 16 30 17 59 27 63 22 5 -4 24 -35 43 -68 l35 -60
-46 -27 c-26 -16 -64 -33 -84 -38 -74 -21 -154 23 -198 108 -50 96 -34 167 52
229 78 57 286 175 322 183 47 10 104 -9 142 -47z m3517 -54 c36 -18 291 -186
338 -222 39 -30 47 -85 20 -136 -7 -13 -42 -68 -78 -122 -60 -92 -66 -98 -86
-87 -24 13 -467 306 -481 319 -10 8 70 139 123 201 32 38 79 67 109 68 7 0 32
-10 55 -21z m-3310 -265 c108 -54 158 -177 106 -260 -24 -40 -226 -226 -289
-266 -38 -25 -53 -29 -92 -25 -80 7 -147 68 -177 160 -18 54 0 100 68 170 76
79 233 215 262 226 37 15 87 13 122 -5z m3057 -79 c14 -8 84 -73 157 -147 146
-149 164 -180 143 -259 -16 -59 -80 -124 -142 -145 -81 -27 -117 -7 -268 145
-69 69 -134 144 -144 165 -45 95 15 204 139 253 33 13 75 8 115 -12z m-2698
-248 c85 -64 85 -61 30 -126 l-29 -34 -43 32 -43 31 -33 -42 -33 -42 32 -28
c18 -15 36 -27 40 -28 8 0 -7 -23 -51 -78 l-18 -23 -39 29 -39 30 -73 -97
c-40 -53 -78 -96 -84 -96 -16 0 -118 78 -119 91 0 9 89 134 110 154 3 3 39 50
81 105 41 55 97 128 123 162 l49 62 31 -21 c17 -12 66 -49 108 -81z m2386 -34
c29 -21 124 -158 198 -283 62 -105 59 -165 -13 -231 -39 -37 -84 -58 -135 -63
-88 -8 -118 20 -256 238 -74 116 -82 134 -82 178 0 79 35 128 120 168 55 25
129 22 168 -7z m-2144 -114 c61 -34 112 -63 114 -64 7 -6 -49 -105 -59 -105
-5 0 -27 9 -49 20 -22 11 -41 20 -44 20 -2 0 -14 -21 -27 -46 -24 -50 -24 -48
34 -80 l27 -15 -20 -37 c-35 -67 -33 -66 -78 -43 -47 24 -44 27 -100 -84 -64
-127 -56 -123 -135 -84 -37 18 -67 38 -67 44 0 5 24 55 54 110 29 55 77 145
106 200 93 176 121 225 127 225 3 0 56 -28 117 -61z m1791 -75 c14 -31 25 -58
25 -59 0 -1 -20 -10 -45 -19 -25 -10 -47 -21 -50 -26 -3 -4 4 -29 16 -54 l20
-46 37 16 c20 8 41 16 46 17 5 1 19 -23 31 -53 l23 -55 -38 -15 c-21 -8 -41
-18 -45 -21 -3 -4 12 -50 34 -103 58 -135 59 -131 -23 -166 -38 -16 -71 -29
-72 -27 -2 2 -44 104 -109 262 -9 22 -20 49 -25 60 -25 54 -98 240 -95 243 3
3 236 101 243 102 1 0 13 -25 27 -56z m-1496 -50 c64 -20 117 -37 119 -39 4
-3 -24 -101 -33 -115 -3 -5 -20 -3 -40 6 -53 22 -62 18 -79 -32 -18 -54 -16
-59 21 -67 51 -12 55 -18 37 -76 -15 -52 -16 -52 -47 -45 -60 14 -69 11 -82
-26 -29 -84 -31 -78 29 -95 31 -9 56 -18 56 -19 0 -9 -34 -102 -39 -109 -6 -6
-248 66 -259 78 -7 7 183 574 192 575 5 0 62 -16 125 -36z m350 -80 c47 -8 86
-16 89 -18 2 -2 0 -30 -3 -61 l-8 -57 -50 6 c-59 8 -67 1 -67 -61 0 -27 5 -43
13 -44 6 -1 17 -2 22 -4 6 -1 21 -3 34 -3 23 -2 23 -4 16 -49 -4 -27 -7 -54
-8 -61 0 -11 -12 -12 -52 -7 l-52 6 -7 -62 c-4 -33 -5 -63 -3 -65 2 -3 27 -7
56 -11 l51 -6 -6 -51 c-8 -70 -10 -75 -31 -71 -10 2 -71 11 -136 21 l-118 17
5 41 c6 46 23 167 30 206 3 14 14 90 25 170 12 80 24 155 26 168 6 25 1 25
174 -4z m575 -113 c16 -11 35 -30 42 -43 18 -32 17 -119 -1 -145 -14 -20 -13
-25 12 -62 16 -22 32 -40 36 -41 5 0 24 12 43 26 19 15 34 25 35 23 11 -58 8
-103 -6 -119 -16 -18 -16 -21 14 -62 l32 -43 -68 -11 c-57 -10 -71 -9 -85 3
-15 13 -20 13 -46 -6 -39 -27 -112 -46 -147 -37 -45 11 -93 69 -101 121 -8 57
0 90 32 122 24 24 24 27 9 36 -20 11 -54 83 -55 115 0 44 37 98 82 121 56 27
132 28 172 2z"/>
<path d="M2793 5294 c-3 -9 -4 -108 -1 -221 6 -210 13 -250 42 -211 10 14 12
64 9 210 -2 106 -6 203 -9 216 -5 25 -32 30 -41 6z"/>
<path d="M4785 4338 c-11 -6 -67 -48 -125 -92 -58 -44 -129 -98 -157 -120 -57
-42 -60 -48 -40 -64 16 -14 38 0 222 142 141 108 146 113 138 133 -6 16 -12
16 -38 1z"/>
<path d="M4577 1724 c-4 -4 -7 -11 -7 -16 0 -14 318 -220 329 -213 27 16 2 40
-136 131 -148 98 -173 111 -186 98z"/>
<path d="M1190 1349 c-131 -122 -160 -159 -126 -159 25 0 306 254 306 277 0
36 -50 3 -180 -118z"/>
<path d="M4294 1399 c-7 -13 273 -299 293 -299 35 0 1 48 -125 173 -75 75
-143 137 -149 137 -7 0 -15 -5 -19 -11z"/>
<path d="M3974 1135 c-7 -16 6 -39 124 -217 47 -71 91 -128 98 -128 27 0 24
21 -12 77 -98 153 -188 283 -196 283 -5 0 -11 -7 -14 -15z"/>
<path d="M3093 743 c-18 -6 -16 -45 2 -69 13 -16 16 -17 25 -4 22 33 3 84 -27
73z"/>
<path d="M3107 476 c-20 -50 5 -86 47 -70 21 8 20 13 -13 53 -24 29 -29 31
-34 17z"/>
</g>
</svg>
